<svg width="900" height="432" viewBox="0 0 900 432" fill="none" xmlns="http://www.w3.org/2000/svg">
<rect width="900" height="432" fill="#0D1117"/>
<rect x="36.5" y="83.5" width="68" height="67" rx="7.5" stroke="#3D444D"/>
<rect x="120.5" y="83.5" width="67" height="67" rx="7.5" stroke="#3D444D"/>
<path d="M148.276 128.805C146.822 127.687 145.272 126.615 144.21 125.107C141.979 122.446 140.26 119.362 139.088 116.124C138.376 114.017 138.136 111.76 137.218 109.734C136.262 108.263 137.383 106.657 139.029 106.19C139.762 106.052 141.054 105.374 139.497 105.861C138.101 106.862 137.967 104.95 139.397 104.83C140.373 104.702 140.734 103.922 140.401 103.217C139.353 102.549 142.945 101.813 141.137 100.815C139.253 98.8297 143.77 98.4467 142.656 100.704C142.391 102.438 145.812 100.385 145.018 102.387C145.825 103.348 148.043 102.606 147.984 103.956C149.16 104.037 149.565 105.001 150.665 105.075C151.81 105.579 153.883 105.978 154.271 107.238C153.137 108.115 150.507 105.424 150.383 107.856C150.727 111.447 150.638 115.146 151.982 118.566C152.618 120.635 154.158 122.265 155.55 123.877C156.884 125.456 158.685 126.568 160.528 127.505C162.14 128.248 163.879 128.742 165.639 129.051C166.351 128.516 167.612 126.538 168.723 127.371C168.778 128.312 166.516 129.333 168.616 129.232C169.85 128.869 170.706 130.163 171.723 128.994C172.658 130.079 175.615 128.301 174.948 130.515C174.047 131.083 172.734 130.74 171.83 131.523C170.342 130.797 169.159 132.171 167.513 132C165.684 132.319 163.824 132.45 161.968 132.45C158.926 132.215 155.818 132.118 152.927 131.083C151.298 130.619 149.706 129.712 148.276 128.805ZM150.844 129.894C152.436 130.566 153.993 131.275 155.736 131.49C158.503 131.866 161.363 132.444 164.14 131.916C162.882 131.362 161.583 132.131 160.332 131.52C158.829 131.836 157.217 131.439 155.691 131.244C153.955 130.488 152.082 129.968 150.456 128.987C148.424 128.261 151.508 129.917 152.054 130.052C153.323 130.757 150.658 129.689 150.28 129.397C149.218 128.812 149.081 128.936 150.174 129.528C150.394 129.652 150.614 129.786 150.844 129.894ZM147.816 127.801C149.359 128.359 147.809 126.739 147.104 126.833C146.791 126.303 145.908 125.967 146.53 125.681C145.409 126.061 145.354 124.237 144.828 124.495C143.643 124.129 144.368 122.832 142.955 122.036C142.828 121.196 141.553 120.471 141.147 119.204C140.968 118.556 139.707 116.698 140.48 118.428C141.14 120.095 142.298 121.522 143.264 122.947C144.014 124.304 144.901 125.721 146.262 126.568C146.723 127.005 147.166 127.667 147.816 127.801ZM143.371 123.034C143.653 123.524 143.426 122.806 143.371 123.034ZM149.662 128.469C150.005 128.322 149.17 128.281 149.662 128.469ZM150.5 128.768C150.414 128.355 150.119 129 150.5 128.768ZM151.549 129.195C152.047 128.731 150.779 128.903 151.549 129.195ZM153.343 130.173C153.649 129.736 152.374 130.008 153.343 130.173ZM149.895 127.824C150.669 127.334 148.895 127.818 149.895 127.824ZM150.683 128.207C150.658 127.949 150.401 128.322 150.683 128.207ZM154.612 130.603C155.244 130.992 158.3 131.456 156.385 130.764C156.066 130.831 152.834 129.87 154.612 130.603ZM148.373 125.856C148.311 125.597 147.393 125.57 148.373 125.856ZM150.201 126.897C150.679 126.575 149.215 126.649 150.201 126.897ZM151.741 127.821C152.422 127.569 150.631 127.569 151.741 127.821ZM147.627 125.063C148.369 125.617 150.617 125.134 148.761 124.73C147.919 124.29 146.014 123.991 147.31 124.996L147.627 125.063ZM152.783 128.14C153.092 127.626 151.487 127.845 152.783 128.14ZM151.215 126.921C153.027 127.421 149.693 125.799 150.768 126.736L151.009 126.844L151.215 126.921ZM154.357 128.695C156.073 128.711 152.807 128.466 154.357 128.695ZM146.967 124.092C146.901 123.78 146.544 124.119 146.967 124.092ZM157.258 130.287C157.307 129.722 156.702 130.707 157.258 130.287ZM149.895 125.846C149.792 125.55 149.359 125.832 149.895 125.846ZM147.132 123.897C148.115 123.84 145.781 123.474 147.132 123.897ZM143.852 121.828C143.728 121.364 142.78 120.998 143.852 121.828ZM152.456 127.163C152.37 127.206 152.278 126.961 152.456 127.163ZM157.812 130.374C157.795 130.069 157.52 130.492 157.812 130.374ZM151.982 126.686C152.078 126.289 151.143 126.565 151.982 126.686ZM147.994 124.213C148.727 124.136 146.819 123.729 147.994 124.213ZM154.742 128.312C155.883 127.868 153.628 128.097 154.742 128.312ZM151.233 125.984C152.549 126.148 149.665 125.107 150.944 125.889L151.233 125.984ZM155.808 128.735C157.038 128.016 156.633 130.418 157.894 128.936C159.139 128.05 156.818 130.035 158.352 129.094C159.462 128.369 161.098 129.437 162.133 129.786C162.875 129.749 163.601 130.415 164.364 130.011C165.832 129.625 161.49 129.437 162.628 128.752C161.284 129.135 160.29 128.295 159.63 127.455C158.121 127.116 156.378 126.363 155.626 125.056C155.32 124.566 156.069 125.127 155.361 124.324C154.453 123.535 154 122.638 153.391 121.677C152.663 121.297 152.577 120.179 152.504 121.64C152.511 120.719 151.624 120.098 151.408 120.357C151.404 119.47 152.357 119.913 151.69 119.258C151.545 118.338 151.074 117.38 150.933 116.342C150.713 115.842 150.903 114.77 150.181 115.902C149.919 117.101 150.095 114.431 150.504 115.311C151.04 114.414 150.311 114.518 150.28 114.642C150.631 113.883 150.5 112.808 150.188 113.218C150.373 112.415 150.483 110.262 149.909 110.645C150.256 109.805 150.569 106.801 149.06 107.947C148.448 107.957 147.393 108.162 146.891 108.407C148.458 109.25 146.733 108.713 146.093 108.579C146.011 109.361 145.378 109.022 144.588 109.029C145.849 109.18 143.973 110.289 143.251 109.859C142.309 110.299 144.062 111.394 143.268 111.733C143.364 112.244 141.828 111.548 141.948 112.727C141.037 112.351 141.824 114.125 142.278 113.527C143.828 113.937 143.371 114.874 143.409 115.761C143.154 116.278 142.161 114.545 143.189 114.625C142.378 113.339 142.292 114.162 141.621 114.756C141.467 114.8 143.337 115.606 142.161 116.006C143.196 116.164 143.227 117.048 143.436 117.605C144.058 118.237 143.931 116.906 144.674 117.666C144.203 116.987 142.182 115.758 143.808 116.151C143.797 115.469 143.512 114.918 144.014 114.931C144.509 114.058 143.495 117.088 144.608 115.976C144.918 115.845 144.993 115.102 145.547 116.046C146.351 116.819 145.839 117.38 144.701 116.671C144.904 117.347 146.221 117.585 145.973 118.64C146.234 119.567 146.602 119.224 146.922 119.171C147.173 120.071 147.314 119.409 147.328 118.979C148.476 119.221 148.208 119.883 148.565 120.346C149.356 120.696 147.434 117.981 148.792 119.53C150.222 120.79 149.328 121.317 148.046 121.116C148.857 121.052 149.118 122.187 150.133 122.147C151.057 122.577 151.686 124.23 150.091 123.541C149.538 123.054 147.578 122.453 149.18 123.38C150.658 124.049 151.831 124.448 153.257 125.288C154.275 126 154.718 126.813 155.103 126.975C154.247 127.374 152.522 126.655 153.804 126.434C153.003 126.293 152.106 125.896 152.872 126.87C153.522 127.401 155.179 127.347 155.478 127.405C155.227 127.945 154.794 127.989 155.488 128.029C154.715 128.439 155.736 128.503 155.808 128.735ZM154.227 124.368C153.756 123.887 153.635 122.987 154.144 123.77C154.402 123.87 154.979 125.241 154.227 124.368ZM159.379 127.566C159.672 127.546 159.386 127.784 159.379 127.566ZM153.484 123.189C153.653 123.75 153.463 122.46 153.484 123.189ZM152.972 122.513C153.718 122.832 152.377 121.398 152.972 122.513ZM146.764 118.327C147.111 118.237 146.936 118.909 146.764 118.327ZM151.703 120.944C151.954 121.603 151.917 120.162 151.703 120.944ZM148.214 118.573C148.73 118.979 147.97 118.139 148.214 118.573ZM151.208 119.51C150.648 118.284 151.607 118.838 151.332 119.712L151.208 119.51ZM146.045 116.147C145.794 115.744 145.382 114.562 145.513 114.202C145.633 114.79 146.791 116.732 146.08 115.005C145.296 113.561 147.018 115.475 147.197 115.835C147.279 116.194 146.712 115.737 147.097 116.577C146.396 115.62 146.685 117.108 146.045 116.147ZM144.45 115.072C144.815 115.714 144.516 114.135 144.45 115.072ZM145.165 115.314C145.746 116.298 145.509 114.605 145.165 115.314ZM143.44 114.007C142.845 113.43 142.415 112.899 143.467 113.648C143.873 113.665 142.567 112.439 143.563 113.258C144.615 113.446 144.083 114.941 143.44 114.007ZM144.347 113.984C144.691 113.651 144.529 114.313 144.347 113.984ZM144.904 114.159C145.54 114.562 144.382 113.201 144.904 114.159ZM143.797 113.124C142.072 111.622 145.966 113.91 144.079 113.403L143.797 113.124ZM148.744 115.932C147.994 115.496 148.544 112.848 148.799 114.659C149.524 114.431 148.758 115.593 149.301 115.583C149.218 116.315 148.974 116.581 148.744 115.932ZM150.576 116.99C150.731 117.535 150.648 116.191 150.576 116.99ZM150.256 116.681C150.339 116.342 150.267 117.085 150.256 116.681ZM144.134 112.63C143.024 111.135 147.358 114.145 144.846 113.01C144.581 112.939 144.265 112.916 144.134 112.63ZM147.661 114.454C147.895 114.662 147.554 113.194 147.661 114.454ZM150.335 116.134C150.542 115.415 150.353 116.607 150.335 116.134ZM144.306 112.059C144.966 111.921 147.039 113.191 145.134 112.422C144.921 112.19 144.471 112.294 144.306 112.059ZM149.968 114.817C150.036 113.527 150.363 114.048 149.971 115.002L149.968 114.817ZM144.794 111.609C145.062 111.222 144.079 109.869 144.935 111.122C145.306 111.407 146.004 111.602 145.385 111.723C146.362 112.563 145.152 111.951 144.794 111.609ZM149.689 114.414C149.875 112.946 149.851 115.274 149.689 114.414ZM144.234 110.255C144.44 110.168 144.344 110.52 144.234 110.255ZM145.509 110.997C146.118 111.746 145.839 110.322 145.509 110.997ZM149.108 112.952C149.177 113.329 149.108 112.694 149.108 112.952ZM148.902 112.502C149.366 113.141 148.403 111.296 148.902 112.502ZM148.596 111.713C148.881 112.338 148.51 111.216 148.596 111.713ZM149.094 110.92C148.751 110.329 149.528 108.317 149.613 109.566C149.253 110.537 149.51 111.081 149.761 109.778C150.229 108.75 149.662 111.8 149.094 110.92ZM149.607 107.927C149.758 107.749 149.641 108.145 149.607 107.927ZM148.751 124.428C148.775 124.539 148.548 124.253 148.751 124.428ZM150.514 125.302C151.497 125.55 151.49 125.154 150.603 125.036C150.126 124.603 148.62 124.143 149.968 124.982C150.06 125.201 150.342 125.194 150.514 125.302ZM147.028 123.037C147.568 123.434 149.067 124.153 147.798 123.189C148.225 122.705 146.98 122.446 147.393 122.12C146.341 121.492 146.564 121.549 147.3 121.569C146.038 121.018 147.482 121.059 147.413 120.776C146.925 120.682 144.997 119.937 146.131 120.837C144.976 120.262 145.856 121.052 145.506 120.968C144.323 120.652 146.558 121.848 145.32 121.549C145.997 122.073 147.142 122.893 145.605 122.103C145.409 122.389 146.709 122.822 147.028 123.037ZM148.874 124.075C151.119 124.781 147.774 123.209 148.874 124.075ZM158.328 129.669C158.355 129.232 158.018 130.042 158.328 129.669ZM159.297 130.069C159.816 129.578 159.318 130.851 160.156 129.948C160.167 129.303 160.132 128.92 159.194 129.706C158.936 129.847 158.819 130.441 159.297 130.069ZM143.88 120.605C143.718 119.994 142.763 119.997 143.88 120.605ZM144.914 121.27C144.529 120.645 143.539 120.706 144.914 121.27ZM150.817 124.747C151.394 125.248 153.463 125.113 151.514 124.808C151.229 124.391 149.686 124.492 150.817 124.747ZM158.929 129.642C159.813 128.916 158.07 129.968 158.929 129.642ZM160.772 130.881C160.778 130.65 160.39 130.982 160.772 130.881ZM160.775 130.556C161.758 129.538 159.823 130.616 160.775 130.556ZM141.326 118.519C140.49 117.353 140.807 116.829 139.999 115.875C139.844 115.146 138.613 113.493 139.363 115.244C140.047 116.268 140.25 117.854 141.326 118.519ZM160.466 130.233C162.274 129.091 159.727 129.736 160.466 130.233ZM161.844 130.761C162.752 130.001 161.273 130.603 161.844 130.761ZM143.57 119.315C143.832 118.939 142.903 119.268 143.57 119.315ZM161.559 130.398C162.435 129.847 161.356 129.931 161.401 130.448L161.559 130.398ZM149.672 123.078C149.641 122.705 149.208 123.108 149.672 123.078ZM150.408 123.491C150.17 123.027 150.047 123.561 150.408 123.491ZM162.965 130.771C164.089 129.978 162.284 130.619 162.731 130.922L162.965 130.771ZM162.532 130.569C163.449 129.82 161.569 130.902 162.532 130.569ZM164.728 131.997C165.343 131.597 163.982 131.869 164.728 131.997ZM144.134 119.043C144.956 119.224 147.42 121.022 145.966 119.167C145.22 118.952 145.667 117.172 144.908 117.488C145.416 118.321 145.327 118.674 144.254 118.149C142.91 117.508 143.498 118.465 143.763 118.731C143.405 118.815 144.241 119.036 144.134 119.043ZM140.387 116.151C140.535 115.556 139.029 112.875 139.676 114.807C139.909 115.213 139.885 115.979 140.387 116.151ZM147.266 120.296C147.245 120.246 146.843 119.95 147.266 120.296ZM148.307 120.535C148.307 119.903 147.156 120.276 148.307 120.535ZM157.348 126.101C157.176 125.671 156.667 126.094 157.348 126.101ZM157.781 126.414C157.719 126.172 157.533 126.461 157.781 126.414ZM161.366 128.617C161.71 128.369 160.937 128.587 161.366 128.617ZM142.257 116.618C143.244 116.245 141.202 116.352 142.257 116.618ZM156.554 125.419C156.54 124.794 155.925 125.574 156.554 125.419ZM141.869 115.731C142.501 115.522 141.281 115.593 141.869 115.731ZM143.704 116.601C143.694 116.396 143.512 116.678 143.704 116.601ZM166.124 130.035C166.938 129.874 168.795 130.441 169.094 129.823C168.104 129.8 165.673 129.141 165.56 129.978L165.777 130.011L166.124 130.035ZM144.289 116.745C144.306 116.114 143.787 116.722 144.289 116.745ZM139.459 113.47C139.239 112.267 138.624 113.288 139.459 113.47ZM140.611 113.752C140.624 113.366 139.555 113.406 140.611 113.752ZM141.267 114.068C141.119 114.259 141.078 113.92 141.267 114.068ZM145.413 116.665C145.609 116.49 144.949 116.537 145.413 116.665ZM140.831 113.356C140.717 112.445 139.497 113.221 140.831 113.356ZM138.469 111.857C138.435 111.437 138.239 112.015 138.469 111.857ZM138.82 111.599C138.761 111.101 138.517 111.662 138.82 111.599ZM140.762 112.731C141.583 112.415 139.267 112.079 140.593 112.67L140.762 112.731ZM166.746 128.416C167.272 127.945 166.079 128.271 166.746 128.416ZM169.884 130.008C170.094 129.4 169.355 130.085 169.884 130.008ZM140.958 111.736C141.047 111.149 140.308 111.854 140.958 111.736ZM138.198 109.929C138.05 109.099 138.07 107.638 139.49 108.132C137.596 108.501 140.803 110.433 140.398 108.908C141.195 108.945 141.955 108.448 141.539 109.203C143.11 109.035 144.196 107.705 145.712 107.89C146.894 107.735 148.183 107.621 149.455 107.158C150.5 107.084 151.508 105.982 150.937 105.33C149.51 105.212 148.015 105.387 146.441 105.693C144.694 106.049 143.106 106.721 141.343 107.013C139.624 107.238 141.687 107.635 141.195 107.722C140.298 108.024 142.264 108.233 141.078 108.552C140.346 108.414 139.583 108.169 139.896 107.416C138.249 107.625 136.802 108.293 138.105 109.929H138.198ZM142.164 107.954C142.549 106.563 144.23 109.096 142.797 108.139C142.625 108.011 142.343 107.91 142.164 107.954ZM142.24 107.279C142.797 106.875 142.536 107.507 142.24 107.279ZM142.948 107.292C143 106.654 144.567 107.631 143.206 107.52L142.948 107.292ZM143.914 106.909C144.268 106.506 144.017 107.268 143.914 106.909ZM144.162 106.748C144.749 106.056 147.493 106.308 145.485 106.681C144.949 106.284 144.536 106.916 144.162 106.748ZM147.743 106.21C149.524 106.879 147.654 104.322 147.743 106.21ZM148.761 106.204C149.132 105.253 150.205 105.821 148.933 106.012C148.96 106.113 148.895 106.502 148.761 106.204ZM140.559 111.249C141.669 110.584 139.38 110.671 140.559 111.249ZM141.381 111.471C141.769 111.068 140.535 111.306 141.381 111.471ZM138.961 109.795C139.597 109.318 138.211 109.613 138.961 109.795ZM171.737 129.833C171.754 129.279 171.253 130.082 171.737 129.833ZM168.406 127.613C168.503 126.975 167.98 127.667 168.406 127.613ZM172.655 130.048C173.542 130.052 175.343 129.78 173.411 129.78C173.109 129.823 171.648 129.817 172.655 130.048ZM142.103 111.081C142.821 111.034 143.227 110.309 141.962 110.349C140.006 110.151 143.687 111.004 141.711 110.759C141.446 110.93 142.085 111.128 142.103 111.081ZM142.735 111.394C142.659 110.944 142.512 111.632 142.735 111.394ZM143.484 109.439C143.794 109.062 143.051 109.338 143.484 109.439ZM141.095 105.542C142.378 105.115 144.127 104.638 144.732 105.75C144.117 105.028 144.485 104.312 145.066 105.374C145.887 106.445 146.3 104.887 145.763 104.527C146.372 105.266 147.066 105.616 146.173 104.574C147.145 103.432 144.227 104.725 143.563 104.712C143.247 104.85 140.27 105.451 141.095 105.542ZM141.848 104.137C142.58 103.6 144.375 104.46 143.223 103.603C143.11 103.503 140.697 104.252 141.848 104.137ZM144.512 104.245C145.368 104.265 144.144 103.123 145.162 103.64C144.993 103.106 143.976 103.005 143.478 102.794C143.196 103.281 144.048 104.252 144.512 104.245ZM142.316 101.88C142.611 101.49 141.797 102.082 142.316 101.88ZM143.402 102.135C144.78 101.957 143.051 101.557 143.123 102.122L143.402 102.135ZM141.37 100.583C140.401 99.3437 143.196 100.792 142.209 99.4948C141.381 98.8498 140.583 100.22 141.37 100.583ZM153.818 107.134C154.261 106.365 151.982 106.096 153.518 106.862C153.663 106.909 153.628 107.188 153.818 107.134Z" fill="#3D444D"/>
<path d="M71.3144 99.8275C70.0281 99.8337 68.8002 99.9459 67.7191 100.142C64.5351 100.719 63.9575 101.927 63.9575 104.154V107.095H71.4811V108.075H61.1336C58.9472 108.075 57.0325 109.423 56.4335 111.988C55.7425 114.927 55.712 116.761 56.4335 119.83C56.9682 122.115 58.2455 123.742 60.4322 123.742H63.0193V120.217C63.0193 117.67 65.1677 115.423 67.7194 115.423H75.2346C77.3265 115.423 78.9962 113.656 78.9962 111.502V104.154C78.9962 102.063 77.276 100.492 75.2346 100.142C73.9415 99.9219 72.6005 99.8216 71.3144 99.8275ZM67.2456 102.193C68.0226 102.193 68.6576 102.854 68.6576 103.668C68.6576 104.478 68.0229 105.134 67.2456 105.134C66.4656 105.134 65.834 104.478 65.834 103.668C65.8337 102.854 66.4656 102.193 67.2456 102.193Z" fill="url(#paint0_linear_633_122)"/>
<path d="M79.9344 108.075V111.502C79.9344 114.158 77.7382 116.394 75.2342 116.394H67.7191C65.6607 116.394 63.9575 118.201 63.9575 120.316V127.664C63.9575 129.755 65.7301 130.985 67.7191 131.585C70.1006 132.303 72.3845 132.433 75.2342 131.585C77.1282 131.022 78.9959 129.89 78.9959 127.664V124.723H71.4811V123.742H82.7582C84.9446 123.742 85.76 122.178 86.5205 119.83C87.306 117.413 87.2721 115.088 86.5205 111.988C85.98 109.755 84.948 108.075 82.7582 108.075L79.9344 108.075ZM75.7074 126.683C76.4877 126.683 77.1194 127.339 77.1194 128.15C77.1194 128.963 76.4874 129.624 75.7074 129.624C74.9305 129.624 74.2958 128.963 74.2958 128.15C74.2958 127.339 74.9305 126.683 75.7074 126.683Z" fill="url(#paint1_linear_633_122)"/>
<rect x="13.5" y="61.5" width="612" height="284" rx="7.5" stroke="#3D444D"/>
<path d="M17.0312 33.0098H14.8691L14.8574 32.1016H16.8203C17.1445 32.1016 17.4277 32.0469 17.6699 31.9375C17.9121 31.8281 18.0996 31.6719 18.2324 31.4688C18.3691 31.2617 18.4375 31.0156 18.4375 30.7305C18.4375 30.418 18.377 30.1641 18.2559 29.9688C18.1387 29.7695 17.957 29.625 17.7109 29.5352C17.4688 29.4414 17.1602 29.3945 16.7852 29.3945H15.1211V37H13.9902V28.4688H16.7852C17.2227 28.4688 17.6133 28.5137 17.957 28.6035C18.3008 28.6895 18.5918 28.8262 18.8301 29.0137C19.0723 29.1973 19.2559 29.4316 19.3809 29.7168C19.5059 30.002 19.5684 30.3438 19.5684 30.7422C19.5684 31.0938 19.4785 31.4121 19.2988 31.6973C19.1191 31.9785 18.8691 32.209 18.5488 32.3887C18.2324 32.5684 17.8613 32.6836 17.4355 32.7344L17.0312 33.0098ZM16.9785 37H14.4238L15.0625 36.0801H16.9785C17.3379 36.0801 17.6426 36.0176 17.8926 35.8926C18.1465 35.7676 18.3398 35.5918 18.4727 35.3652C18.6055 35.1348 18.6719 34.8633 18.6719 34.5508C18.6719 34.2344 18.6152 33.9609 18.502 33.7305C18.3887 33.5 18.2109 33.3223 17.9688 33.1973C17.7266 33.0723 17.4141 33.0098 17.0312 33.0098H15.4199L15.4316 32.1016H17.6348L17.875 32.4297C18.2852 32.4648 18.6328 32.582 18.918 32.7812C19.2031 32.9766 19.4199 33.2266 19.5684 33.5312C19.7207 33.8359 19.7969 34.1719 19.7969 34.5391C19.7969 35.0703 19.6797 35.5195 19.4453 35.8867C19.2148 36.25 18.8887 36.5273 18.4668 36.7188C18.0449 36.9062 17.5488 37 16.9785 37ZM24.625 29.2246L21.8008 37H20.6465L23.8984 28.4688H24.6426L24.625 29.2246ZM26.9922 37L24.1621 29.2246L24.1445 28.4688H24.8887L28.1523 37H26.9922ZM26.8457 33.8418V34.7676H22.0527V33.8418H26.8457ZM34.375 34.2871H35.5C35.4414 34.8262 35.2871 35.3086 35.0371 35.7344C34.7871 36.1602 34.4336 36.498 33.9766 36.748C33.5195 36.9941 32.9492 37.1172 32.2656 37.1172C31.7656 37.1172 31.3105 37.0234 30.9004 36.8359C30.4941 36.6484 30.1445 36.3828 29.8516 36.0391C29.5586 35.6914 29.332 35.2754 29.1719 34.791C29.0156 34.3027 28.9375 33.7598 28.9375 33.1621V32.3125C28.9375 31.7148 29.0156 31.1738 29.1719 30.6895C29.332 30.2012 29.5605 29.7832 29.8574 29.4355C30.1582 29.0879 30.5195 28.8203 30.9414 28.6328C31.3633 28.4453 31.8379 28.3516 32.3652 28.3516C33.0098 28.3516 33.5547 28.4727 34 28.7148C34.4453 28.957 34.791 29.293 35.0371 29.7227C35.2871 30.1484 35.4414 30.6426 35.5 31.2051H34.375C34.3203 30.8066 34.2188 30.4648 34.0703 30.1797C33.9219 29.8906 33.7109 29.668 33.4375 29.5117C33.1641 29.3555 32.8066 29.2773 32.3652 29.2773C31.9863 29.2773 31.6523 29.3496 31.3633 29.4941C31.0781 29.6387 30.8379 29.8438 30.6426 30.1094C30.4512 30.375 30.3066 30.6934 30.209 31.0645C30.1113 31.4355 30.0625 31.8477 30.0625 32.3008V33.1621C30.0625 33.5801 30.1055 33.9727 30.1914 34.3398C30.2812 34.707 30.416 35.0293 30.5957 35.3066C30.7754 35.584 31.0039 35.8027 31.2812 35.9629C31.5586 36.1191 31.8867 36.1973 32.2656 36.1973C32.7461 36.1973 33.1289 36.1211 33.4141 35.9688C33.6992 35.8164 33.9141 35.5977 34.0586 35.3125C34.207 35.0273 34.3125 34.6855 34.375 34.2871ZM38.1719 28.4688V37H37.041V28.4688H38.1719ZM43.3223 28.4688L39.7773 32.4473L37.7852 34.5156L37.5977 33.3086L39.0977 31.6562L41.9629 28.4688H43.3223ZM42.2324 37L39.0742 32.8398L39.748 31.9434L43.5801 37H42.2324ZM49.9961 36.0801V37H45.4785V36.0801H49.9961ZM45.707 28.4688V37H44.5762V28.4688H45.707ZM49.3984 32.1367V33.0566H45.4785V32.1367H49.3984ZM49.9375 28.4688V29.3945H45.4785V28.4688H49.9375ZM57.959 28.4688V37H56.8223L52.5273 30.4199V37H51.3965V28.4688H52.5273L56.8398 35.0664V28.4688H57.959ZM62.2715 37H60.4902L60.502 36.0801H62.2715C62.8809 36.0801 63.3887 35.9531 63.7949 35.6992C64.2012 35.4414 64.5059 35.082 64.709 34.6211C64.916 34.1562 65.0195 33.6133 65.0195 32.9922V32.4707C65.0195 31.9824 64.9609 31.5488 64.8438 31.1699C64.7266 30.7871 64.5547 30.4648 64.3281 30.2031C64.1016 29.9375 63.8242 29.7363 63.4961 29.5996C63.1719 29.4629 62.7988 29.3945 62.377 29.3945H60.4551V28.4688H62.377C62.9355 28.4688 63.4453 28.5625 63.9062 28.75C64.3672 28.9336 64.7637 29.2012 65.0957 29.5527C65.4316 29.9004 65.6895 30.3223 65.8691 30.8184C66.0488 31.3105 66.1387 31.8652 66.1387 32.4824V32.9922C66.1387 33.6094 66.0488 34.166 65.8691 34.6621C65.6895 35.1543 65.4297 35.5742 65.0898 35.9219C64.7539 36.2695 64.3477 36.5371 63.8711 36.7246C63.3984 36.9082 62.8652 37 62.2715 37ZM61.0938 28.4688V37H59.9629V28.4688H61.0938ZM75.3613 34.8438C75.3613 34.6445 75.3301 34.4688 75.2676 34.3164C75.209 34.1602 75.1035 34.0195 74.9512 33.8945C74.8027 33.7695 74.5957 33.6504 74.3301 33.5371C74.0684 33.4238 73.7363 33.3086 73.334 33.1914C72.9121 33.0664 72.5312 32.9277 72.1914 32.7754C71.8516 32.6191 71.5605 32.4414 71.3184 32.2422C71.0762 32.043 70.8906 31.8145 70.7617 31.5566C70.6328 31.2988 70.5684 31.0039 70.5684 30.6719C70.5684 30.3398 70.6367 30.0332 70.7734 29.752C70.9102 29.4707 71.1055 29.2266 71.3594 29.0195C71.6172 28.8086 71.9238 28.6445 72.2793 28.5273C72.6348 28.4102 73.0312 28.3516 73.4688 28.3516C74.1094 28.3516 74.6523 28.4746 75.0977 28.7207C75.5469 28.9629 75.8887 29.2812 76.123 29.6758C76.3574 30.0664 76.4746 30.4844 76.4746 30.9297H75.3496C75.3496 30.6094 75.2812 30.3262 75.1445 30.0801C75.0078 29.8301 74.8008 29.6348 74.5234 29.4941C74.2461 29.3496 73.8945 29.2773 73.4688 29.2773C73.0664 29.2773 72.7344 29.3379 72.4727 29.459C72.2109 29.5801 72.0156 29.7441 71.8867 29.9512C71.7617 30.1582 71.6992 30.3945 71.6992 30.6602C71.6992 30.8398 71.7363 31.0039 71.8105 31.1523C71.8887 31.2969 72.0078 31.4316 72.168 31.5566C72.332 31.6816 72.5391 31.7969 72.7891 31.9023C73.043 32.0078 73.3457 32.1094 73.6973 32.207C74.1816 32.3438 74.5996 32.4961 74.9512 32.6641C75.3027 32.832 75.5918 33.0215 75.8184 33.2324C76.0488 33.4395 76.2188 33.6758 76.3281 33.9414C76.4414 34.2031 76.498 34.5 76.498 34.832C76.498 35.1797 76.4277 35.4941 76.2871 35.7754C76.1465 36.0566 75.9453 36.2969 75.6836 36.4961C75.4219 36.6953 75.1074 36.8496 74.7402 36.959C74.377 37.0645 73.9707 37.1172 73.5215 37.1172C73.127 37.1172 72.7383 37.0625 72.3555 36.9531C71.9766 36.8438 71.6309 36.6797 71.3184 36.4609C71.0098 36.2422 70.7617 35.9727 70.5742 35.6523C70.3906 35.3281 70.2988 34.9531 70.2988 34.5273H71.4238C71.4238 34.8203 71.4805 35.0723 71.5938 35.2832C71.707 35.4902 71.8613 35.6621 72.0566 35.7988C72.2559 35.9355 72.4805 36.0371 72.7305 36.1035C72.9844 36.166 73.248 36.1973 73.5215 36.1973C73.916 36.1973 74.25 36.1426 74.5234 36.0332C74.7969 35.9238 75.0039 35.7676 75.1445 35.5645C75.2891 35.3613 75.3613 35.1211 75.3613 34.8438ZM79.0703 28.4688V37H77.9395V28.4688H79.0703ZM84.2207 28.4688L80.6758 32.4473L78.6836 34.5156L78.4961 33.3086L79.9961 31.6562L82.8613 28.4688H84.2207ZM83.1309 37L79.9727 32.8398L80.6465 31.9434L84.4785 37H83.1309ZM86.6875 28.4688V37H85.5566V28.4688H86.6875ZM93.918 36.0801V37H89.6523V36.0801H93.918ZM89.875 28.4688V37H88.7441V28.4688H89.875ZM100.387 36.0801V37H96.1211V36.0801H100.387ZM96.3438 28.4688V37H95.2129V28.4688H96.3438ZM106.229 34.8438C106.229 34.6445 106.197 34.4688 106.135 34.3164C106.076 34.1602 105.971 34.0195 105.818 33.8945C105.67 33.7695 105.463 33.6504 105.197 33.5371C104.936 33.4238 104.604 33.3086 104.201 33.1914C103.779 33.0664 103.398 32.9277 103.059 32.7754C102.719 32.6191 102.428 32.4414 102.186 32.2422C101.943 32.043 101.758 31.8145 101.629 31.5566C101.5 31.2988 101.436 31.0039 101.436 30.6719C101.436 30.3398 101.504 30.0332 101.641 29.752C101.777 29.4707 101.973 29.2266 102.227 29.0195C102.484 28.8086 102.791 28.6445 103.146 28.5273C103.502 28.4102 103.898 28.3516 104.336 28.3516C104.977 28.3516 105.52 28.4746 105.965 28.7207C106.414 28.9629 106.756 29.2812 106.99 29.6758C107.225 30.0664 107.342 30.4844 107.342 30.9297H106.217C106.217 30.6094 106.148 30.3262 106.012 30.0801C105.875 29.8301 105.668 29.6348 105.391 29.4941C105.113 29.3496 104.762 29.2773 104.336 29.2773C103.934 29.2773 103.602 29.3379 103.34 29.459C103.078 29.5801 102.883 29.7441 102.754 29.9512C102.629 30.1582 102.566 30.3945 102.566 30.6602C102.566 30.8398 102.604 31.0039 102.678 31.1523C102.756 31.2969 102.875 31.4316 103.035 31.5566C103.199 31.6816 103.406 31.7969 103.656 31.9023C103.91 32.0078 104.213 32.1094 104.564 32.207C105.049 32.3438 105.467 32.4961 105.818 32.6641C106.17 32.832 106.459 33.0215 106.686 33.2324C106.916 33.4395 107.086 33.6758 107.195 33.9414C107.309 34.2031 107.365 34.5 107.365 34.832C107.365 35.1797 107.295 35.4941 107.154 35.7754C107.014 36.0566 106.812 36.2969 106.551 36.4961C106.289 36.6953 105.975 36.8496 105.607 36.959C105.244 37.0645 104.838 37.1172 104.389 37.1172C103.994 37.1172 103.605 37.0625 103.223 36.9531C102.844 36.8438 102.498 36.6797 102.186 36.4609C101.877 36.2422 101.629 35.9727 101.441 35.6523C101.258 35.3281 101.166 34.9531 101.166 34.5273H102.291C102.291 34.8203 102.348 35.0723 102.461 35.2832C102.574 35.4902 102.729 35.6621 102.924 35.7988C103.123 35.9355 103.348 36.0371 103.598 36.1035C103.852 36.166 104.115 36.1973 104.389 36.1973C104.783 36.1973 105.117 36.1426 105.391 36.0332C105.664 35.9238 105.871 35.7676 106.012 35.5645C106.156 35.3613 106.229 35.1211 106.229 34.8438ZM108.596 36.4258C108.596 36.2422 108.652 36.0879 108.766 35.9629C108.883 35.834 109.051 35.7695 109.27 35.7695C109.488 35.7695 109.654 35.834 109.768 35.9629C109.885 36.0879 109.943 36.2422 109.943 36.4258C109.943 36.6055 109.885 36.7578 109.768 36.8828C109.654 37.0078 109.488 37.0703 109.27 37.0703C109.051 37.0703 108.883 37.0078 108.766 36.8828C108.652 36.7578 108.596 36.6055 108.596 36.4258ZM108.602 31.252C108.602 31.0684 108.658 30.9141 108.771 30.7891C108.889 30.6602 109.057 30.5957 109.275 30.5957C109.494 30.5957 109.66 30.6602 109.773 30.7891C109.891 30.9141 109.949 31.0684 109.949 31.252C109.949 31.4316 109.891 31.584 109.773 31.709C109.66 31.834 109.494 31.8965 109.275 31.8965C109.057 31.8965 108.889 31.834 108.771 31.709C108.658 31.584 108.602 31.4316 108.602 31.252ZM115.99 32.2012H116.764C117.143 32.2012 117.455 32.1387 117.701 32.0137C117.951 31.8848 118.137 31.7109 118.258 31.4922C118.383 31.2695 118.445 31.0195 118.445 30.7422C118.445 30.4141 118.391 30.1387 118.281 29.916C118.172 29.6934 118.008 29.5254 117.789 29.4121C117.57 29.2988 117.293 29.2422 116.957 29.2422C116.652 29.2422 116.383 29.3027 116.148 29.4238C115.918 29.541 115.736 29.709 115.604 29.9277C115.475 30.1465 115.41 30.4043 115.41 30.7012H114.326C114.326 30.2676 114.436 29.873 114.654 29.5176C114.873 29.1621 115.18 28.8789 115.574 28.668C115.973 28.457 116.434 28.3516 116.957 28.3516C117.473 28.3516 117.924 28.4434 118.311 28.627C118.697 28.8066 118.998 29.0762 119.213 29.4355C119.428 29.791 119.535 30.2344 119.535 30.7656C119.535 30.9805 119.484 31.2109 119.383 31.457C119.285 31.6992 119.131 31.9258 118.92 32.1367C118.713 32.3477 118.443 32.5215 118.111 32.6582C117.779 32.791 117.381 32.8574 116.916 32.8574H115.99V32.2012ZM115.99 33.0918V32.4414H116.916C117.459 32.4414 117.908 32.5059 118.264 32.6348C118.619 32.7637 118.898 32.9355 119.102 33.1504C119.309 33.3652 119.453 33.6016 119.535 33.8594C119.621 34.1133 119.664 34.3672 119.664 34.6211C119.664 35.0195 119.596 35.373 119.459 35.6816C119.326 35.9902 119.137 36.252 118.891 36.4668C118.648 36.6816 118.363 36.8438 118.035 36.9531C117.707 37.0625 117.35 37.1172 116.963 37.1172C116.592 37.1172 116.242 37.0645 115.914 36.959C115.59 36.8535 115.303 36.7012 115.053 36.502C114.803 36.2988 114.607 36.0508 114.467 35.7578C114.326 35.4609 114.256 35.123 114.256 34.7441H115.34C115.34 35.041 115.404 35.3008 115.533 35.5234C115.666 35.7461 115.854 35.9199 116.096 36.0449C116.342 36.166 116.631 36.2266 116.963 36.2266C117.295 36.2266 117.58 36.1699 117.818 36.0566C118.061 35.9395 118.246 35.7637 118.375 35.5293C118.508 35.2949 118.574 35 118.574 34.6445C118.574 34.2891 118.5 33.998 118.352 33.7715C118.203 33.541 117.992 33.3711 117.719 33.2617C117.449 33.1484 117.131 33.0918 116.764 33.0918H115.99Z" fill="white"/>
<defs>
<linearGradient id="paint0_linear_633_122" x1="55.1495" y1="100.747" x2="72.871" y2="115.482" gradientUnits="userSpaceOnUse">
<stop offset="1" stop-color="#3D444D"/>
</linearGradient>
<linearGradient id="paint1_linear_633_122" x1="79.0315" y1="125.36" x2="72.5978" y2="116.563" gradientUnits="userSpaceOnUse">
<stop stop-color="#3D444D"/>
</linearGradient>
</defs>
</svg>
